<svg width="456" height="456" viewBox="0 0 456 456" fill="none" xmlns="http://www.w3.org/2000/svg">
<path d="M155.693 323.127C150.051 323.127 145.22 321.046 141.202 316.884C137.184 312.722 135.175 307.719 135.175 301.875V153.105C135.175 147.261 137.184 142.257 141.202 138.095C145.22 133.933 150.051 131.852 155.693 131.852H198.782C201.005 125.476 204.724 120.34 209.939 116.444C215.154 112.548 221.01 110.599 227.508 110.599C234.005 110.599 239.861 112.548 245.076 116.444C250.291 120.34 254.01 125.476 256.233 131.852H299.322C304.964 131.852 309.795 133.933 313.813 138.095C317.831 142.257 319.84 147.261 319.84 153.105V301.875C319.84 307.719 317.831 312.722 313.813 316.884C309.795 321.046 304.964 323.127 299.322 323.127H155.693ZM176.212 280.622H248.026V259.369H176.212V280.622ZM176.212 238.116H278.803V216.863H176.212V238.116ZM176.212 195.611H278.803V174.358H176.212V195.611ZM233.022 142.877C234.475 141.372 235.202 139.468 235.202 137.165C235.202 134.863 234.475 132.959 233.022 131.454C231.568 129.948 229.73 129.196 227.508 129.196C225.285 129.196 223.447 129.948 221.993 131.454C220.54 132.959 219.813 134.863 219.813 137.165C219.813 139.468 220.54 141.372 221.993 142.877C223.447 144.383 225.285 145.135 227.508 145.135C229.73 145.135 231.568 144.383 233.022 142.877Z" fill="white"/>
</svg>
